<svg width="25" height="25" viewBox="0 0 25 25" fill="none" xmlns="http://www.w3.org/2000/svg">
<path fill-rule="evenodd" clip-rule="evenodd" d="M19.7256 17.6397C20.9234 17.6397 21.5804 17.867 21.9099 18.5515C22.1189 18.9854 22.182 19.7573 22.182 19.7573H2.45302C2.56782 18.1156 3.1688 17.6397 4.90207 17.6397L19.7256 17.6397ZM1.01968 20.4632C1.01968 20.853 1.33572 21.1691 1.72555 21.1691H22.902C23.2918 21.1691 23.6079 20.853 23.6079 20.4632C23.6079 17.5142 22.5195 16.2279 19.7255 16.2279H4.90207C2.10806 16.2279 1.01968 17.5142 1.01968 20.4632ZM12.3138 5.99259C6.29192 5.99259 2.43145 9.69984 2.43145 14.8161C2.43145 15.2059 2.74749 15.522 3.13731 15.522H21.4902C21.8801 15.522 22.1961 15.2059 22.1961 14.8161C22.1962 9.69988 18.3357 5.99259 12.3138 5.99259ZM3.87238 14.1102C4.20424 10.1613 7.34896 7.40436 12.3138 7.40436C17.2795 7.40436 20.4244 10.1622 20.7554 14.1102H3.87238Z" fill="white"/>
<path fill-rule="evenodd" clip-rule="evenodd" d="M11.608 6.34554C11.608 6.73537 11.924 7.05141 12.3138 7.05141C12.7036 7.05141 13.0197 6.73537 13.0197 6.34554V5.28673H14.4315C14.8213 5.28673 15.1373 4.97069 15.1373 4.58086C15.1373 4.19103 14.8213 3.875 14.4315 3.875H10.1962C9.80636 3.875 9.49033 4.19103 9.49033 4.58086C9.49033 4.97073 9.80636 5.28673 10.1962 5.28673H11.608V6.34554Z" fill="white"/>
</svg>
