<svg width="24" height="23" viewBox="0 0 24 23" fill="none" xmlns="http://www.w3.org/2000/svg">
<path d="M16.6335 0.5C14.6626 0.503025 12.8164 1.46433 11.6835 3.07689C11.1252 2.28221 10.3841 1.63332 9.52268 1.18487C8.66124 0.736414 7.70465 0.501531 6.73347 0.5C3.51047 0.5 0.683472 3.49869 0.683472 6.91667C0.683472 10.2478 2.56447 13.6787 6.12334 16.8387C7.77233 18.2999 9.58107 19.5703 11.5152 20.6256C11.5672 20.6525 11.6249 20.6665 11.6835 20.6665C11.742 20.6665 11.7997 20.6525 11.8518 20.6256C13.7852 19.5702 15.5934 18.2998 17.2418 16.8387C20.8025 13.6787 22.6835 10.2478 22.6835 6.91667C22.6835 3.49869 19.8565 0.5 16.6335 0.5ZM11.6835 19.883C10.3368 19.1399 1.41681 13.9478 1.41681 6.91667C1.41681 3.88915 3.90097 1.23333 6.73347 1.23333C8.65238 1.23673 10.4212 2.27192 11.3641 3.94341C11.4346 4.05117 11.5547 4.11602 11.6835 4.11602C11.8122 4.11602 11.9323 4.05117 12.0029 3.94341C12.9457 2.27192 14.7146 1.23673 16.6335 1.23333C19.466 1.23333 21.9501 3.88915 21.9501 6.91667C21.9501 13.9478 13.0302 19.1399 11.6835 19.883Z" fill="white" stroke="white" stroke-width="0.916667"/>
</svg>
