<svg width="25" height="25" viewBox="0 0 25 25" fill="none" xmlns="http://www.w3.org/2000/svg">
<path d="M18.7137 17.1168L22.2893 20.6924C22.6799 21.0829 22.6799 21.716 22.2893 22.1066C21.8988 22.4971 21.2657 22.4971 20.8751 22.1066L17.2995 18.531C15.7596 19.763 13.8067 20.5 11.6827 20.5C6.71474 20.5 2.68274 16.468 2.68274 11.5C2.68274 6.53195 6.71474 2.49995 11.6827 2.49995C16.6507 2.49995 20.6827 6.53195 20.6827 11.5C20.6827 13.624 19.9457 15.5769 18.7137 17.1168ZM16.7074 16.3748C17.9302 15.1146 18.6827 13.3956 18.6827 11.5C18.6827 7.63245 15.5502 4.49995 11.6827 4.49995C7.81524 4.49995 4.68274 7.63245 4.68274 11.5C4.68274 15.3675 7.81524 18.5 11.6827 18.5C13.5783 18.5 15.2973 17.7475 16.5575 16.5247L16.7074 16.3748Z" fill="white"/>
</svg>
