<svg width="25" height="25" viewBox="0 0 25 25" fill="none" xmlns="http://www.w3.org/2000/svg">
<g clip-path="url(#clip0_0_432)">
<path d="M20.7465 6.12563C20.7263 5.82323 20.4748 5.58803 20.1715 5.58803H17.2915C17.2915 3.04643 15.2241 0.980026 12.6835 0.980026C10.1428 0.980026 8.07546 3.04643 8.07546 5.58803H5.19546C4.8921 5.58803 4.64106 5.82323 4.62042 6.12563L3.46842 23.4056C3.45786 23.564 3.51402 23.7205 3.6225 23.8376C3.73146 23.9533 3.8841 24.02 4.04346 24.02H21.3235C21.4828 24.02 21.635 23.9538 21.7444 23.8376C21.8529 23.7205 21.9091 23.564 21.8985 23.4056L20.7465 6.12563ZM12.6835 2.13203C14.5891 2.13203 16.1395 3.68243 16.1395 5.58803H9.22746C9.22746 3.68243 10.7779 2.13203 12.6835 2.13203ZM4.6593 22.868L5.73402 6.74003H8.07498V7.89203H7.49898V9.04403H9.80298V7.89203H9.22698V6.74003H16.139V7.89203H15.563V9.04403H17.867V7.89203H17.291V6.74003H19.6319L20.7067 22.868H4.6593Z" fill="white"/>
<path d="M16.0785 12.8182C15.9806 12.6238 15.7814 12.5 15.5635 12.5H9.80349C9.58509 12.5 9.38589 12.6238 9.28845 12.8182L8.13645 15.1222C8.02557 15.344 8.06877 15.6118 8.24445 15.787L12.2765 19.819C12.3888 19.9314 12.5361 19.988 12.6835 19.988C12.8309 19.988 12.9782 19.9318 13.0905 19.819L17.1225 15.787C17.2982 15.6114 17.3414 15.344 17.2305 15.1222L16.0785 12.8182ZM10.1597 13.652H12.1075V18.0214L9.35229 15.2662L10.1597 13.652ZM13.2595 18.0214V13.652H15.2073L16.0147 15.2662L13.2595 18.0214Z" fill="white"/>
</g>
<defs>
<clipPath id="clip0_0_432">
<rect width="24" height="24" fill="white" transform="translate(0.683472 0.5)"/>
</clipPath>
</defs>
</svg>
