<svg width="25" height="25" viewBox="0 0 25 25" fill="none" xmlns="http://www.w3.org/2000/svg">
<path d="M20.6842 21.5C20.6842 22.0523 20.2365 22.5 19.6842 22.5C19.1319 22.5 18.6842 22.0523 18.6842 21.5V20.5C18.6842 18.8431 17.3411 17.5 15.6842 17.5H9.6842C8.02735 17.5 6.6842 18.8431 6.6842 20.5V21.5C6.6842 22.0523 6.23649 22.5 5.6842 22.5C5.13192 22.5 4.6842 22.0523 4.6842 21.5V20.5C4.6842 17.7386 6.92278 15.5 9.6842 15.5H15.6842C18.4456 15.5 20.6842 17.7386 20.6842 20.5V21.5ZM12.6842 13.5C9.37049 13.5 6.6842 10.8137 6.6842 7.50005C6.6842 4.18634 9.37049 1.50005 12.6842 1.50005C15.9979 1.50005 18.6842 4.18634 18.6842 7.50005C18.6842 10.8137 15.9979 13.5 12.6842 13.5ZM12.6842 11.5C14.8933 11.5 16.6842 9.70919 16.6842 7.50005C16.6842 5.29091 14.8933 3.50005 12.6842 3.50005C10.4751 3.50005 8.6842 5.29091 8.6842 7.50005C8.6842 9.70919 10.4751 11.5 12.6842 11.5Z" fill="white"/>
</svg>
